<?xml version="1.0" encoding="iso-8859-1"?>
<!-- Generator: Adobe Illustrator 19.0.0, SVG Export Plug-In . SVG Version: 6.00 Build 0)  -->
<svg version="1.1" id="Layer_1" xmlns="http://www.w3.org/2000/svg" xmlns:xlink="http://www.w3.org/1999/xlink" x="0px" y="0px"
	 viewBox="0 0 512.03 512.03" style="enable-background:new 0 0 512.03 512.03;" xml:space="preserve">
<path d="M0,329.063V90.479c0.08-4.2,3.456-7.576,7.656-7.656h361.712c4.2,0.08,7.576,3.456,7.656,7.656v238.584H0z"/>
<g>
	<path style="fill:#E2E2E2;" d="M377.024,329.063v30.632c-0.08,4.2-3.456,7.576-7.656,7.656H7.656
		c-4.2-0.08-7.576-3.464-7.656-7.656v-30.632H377.024z"/>
	<rect x="107.808" y="421.551" style="fill:#E2E2E2;" width="161.44" height="7.656"/>
</g>
<polygon style="fill:#CECECE;" points="242.12,421.551 134.904,421.551 142.56,367.351 234.464,367.351 "/>
<rect x="15.32" y="98.135" style="fill:#FFFFFF;" width="346.4" height="215.608"/>
<polygon style="fill:#B7B7B7;" points="234.464,367.351 142.56,367.351 138.288,397.607 235.84,377.095 "/>
<path style="fill:#333333;" d="M458.92,268.575H137.896c-7.04-0.176-12.696-5.832-12.872-12.872v-97
	c0.176-7.04,5.832-12.696,12.872-12.872h321.888c7.04,0.176,12.696,5.832,12.872,12.872v97.856
	C471.696,263.415,465.848,268.535,458.92,268.575z"/>
<rect x="461.808" y="333.676" transform="matrix(0.7071 -0.7071 0.7071 0.7071 -120.8666 445.0816)" style="fill:#F91E1E;" width="30.04" height="69.527"/>
<polygon style="fill:#E21B1B;" points="419.44,375.911 405.704,298.663 482.96,312.391 "/>
<g>
	<path style="fill:#FFFFFF;" d="M249.48,233.383c-4.104,1.616-8.464,2.496-12.872,2.576c-11.808,0.544-21.824-8.584-22.376-20.4
		c-0.04-0.936-0.024-1.872,0.056-2.8c-0.576-12.68,9.232-23.424,21.904-24c0.696-0.032,1.4-0.032,2.096,0
		c3.904-0.4,7.832,0.504,11.16,2.576l-1.72,6.008c-2.896-1.592-6.136-2.48-9.44-2.576c-8.832-0.2-16.152,6.808-16.352,15.64
		c-0.008,0.512,0,1.016,0.04,1.528c-0.728,8.72,5.744,16.384,14.472,17.12c0.328,0.024,0.656,0.048,0.976,0.048
		c3.616,0.176,7.2-0.72,10.304-2.576L249.48,233.383z"/>
	<path style="fill:#FFFFFF;" d="M258.928,168.151h8.584v66.952h-8.584L258.928,168.151L258.928,168.151z"/>
	<path style="fill:#FFFFFF;" d="M290.68,176.735c0.12,2.728-2,5.032-4.728,5.152c-0.144,0.008-0.28,0.008-0.424,0
		c-2.848,0-5.152-2.304-5.152-5.152c0-2.848,2.304-5.152,5.152-5.152C288.376,171.583,290.68,173.887,290.68,176.735z
		 M281.24,235.135v-45.52h8.584v45.496L281.24,235.135z"/>
	<path style="fill:#FFFFFF;" d="M335.32,233.383c-4.104,1.616-8.464,2.496-12.872,2.576c-11.808,0.544-21.824-8.584-22.376-20.4
		c-0.04-0.936-0.024-1.872,0.056-2.8c-0.576-12.68,9.232-23.424,21.904-24c0.696-0.032,1.4-0.032,2.096,0
		c3.904-0.4,7.832,0.504,11.16,2.576l-1.72,6.008c-2.896-1.592-6.136-2.48-9.44-2.576c-8.832-0.2-16.152,6.808-16.352,15.64
		c-0.008,0.512,0,1.016,0.04,1.528c-0.728,8.72,5.744,16.384,14.472,17.12c0.328,0.024,0.656,0.048,0.976,0.048
		c3.616,0.176,7.2-0.72,10.304-2.576L335.32,233.383z"/>
	<path style="fill:#FFFFFF;" d="M353.344,210.207L353.344,210.207c1.72-1.72,2.576-3.432,4.288-5.152l13.736-15.44h10.304
		l-17.168,18.888l19.744,26.608h-10.304l-15.448-21.496l-4.288,4.288v17.168H345.6v-66.92h8.584v42.056H353.344z"/>
</g>
<g>
</g>
<g>
</g>
<g>
</g>
<g>
</g>
<g>
</g>
<g>
</g>
<g>
</g>
<g>
</g>
<g>
</g>
<g>
</g>
<g>
</g>
<g>
</g>
<g>
</g>
<g>
</g>
<g>
</g>
</svg>
