<?xml version="1.0" standalone="no"?>
<!DOCTYPE svg PUBLIC "-//W3C//DTD SVG 20010904//EN"
 "http://www.w3.org/TR/2001/REC-SVG-20010904/DTD/svg10.dtd">
<svg version="1.0" xmlns="http://www.w3.org/2000/svg"
 width="1280.000000pt" height="1055.000000pt" viewBox="0 0 1280.000000 1055.000000"
 preserveAspectRatio="xMidYMid meet">
<metadata>
Created by potrace 1.15, written by Peter Selinger 2001-2017
</metadata>
<g transform="translate(0.000000,1055.000000) scale(0.100000,-0.100000)"
fill="#000000" stroke="none">
<path d="M9595 10544 c-27 -2 -133 -8 -235 -14 -840 -49 -1242 -100 -1621
-204 -499 -137 -828 -364 -992 -684 -25 -48 -55 -118 -67 -157 -40 -132 -132
-576 -230 -1115 -177 -973 -237 -1201 -529 -2025 -73 -203 -137 -386 -144
-405 -6 -19 -14 -38 -17 -43 -3 -4 -71 -18 -151 -32 -657 -115 -1512 -368
-1788 -530 -131 -77 -303 -319 -371 -525 -75 -221 -42 -370 114 -525 45 -44
107 -95 138 -113 170 -100 431 -179 703 -212 49 -6 90 -12 91 -13 0 -1 -3 -45
-8 -97 -5 -52 -7 -174 -5 -271 l5 -177 -166 -6 c-404 -14 -492 -22 -572 -51
-196 -70 -386 -182 -755 -444 -166 -119 -260 -174 -369 -218 -167 -67 -212
-73 -728 -104 l-376 -23 -38 34 c-21 18 -63 45 -94 59 -53 25 -63 26 -260 29
-113 2 -275 -1 -360 -6 -131 -8 -163 -13 -210 -34 -301 -136 -530 -597 -556
-1117 -22 -419 135 -797 379 -916 65 -31 98 -38 357 -78 325 -49 362 -49 469
5 78 39 200 153 256 237 l40 60 55 -5 c30 -2 192 -11 360 -20 687 -34 1591
-87 2045 -119 329 -23 451 -35 580 -56 82 -13 163 -19 255 -18 l135 1 26 -70
c87 -234 223 -398 363 -436 28 -8 228 -35 445 -61 343 -41 400 -46 445 -36
150 34 297 183 420 429 26 50 51 92 55 92 5 0 132 -16 282 -35 557 -70 846
-90 1233 -82 292 5 466 20 723 62 364 59 662 146 774 225 l30 22 37 -26 c76
-52 93 -55 445 -73 401 -20 390 -22 502 91 83 85 148 201 199 358 193 587 70
1379 -236 1532 -59 30 -113 33 -292 16 -109 -11 -109 -11 -135 14 -30 29 -147
88 -208 107 -50 14 -50 18 -25 122 l17 69 190 -1 c193 -1 385 16 497 44 113
28 263 120 348 211 112 120 155 216 148 330 -6 95 -59 203 -210 430 -63 94
-126 195 -140 225 -52 111 -91 432 -69 567 15 87 63 239 113 357 l34 80 46 -2
45 -3 18 46 c10 26 132 279 272 563 140 284 256 525 258 536 3 22 68 164 295
640 476 999 663 1435 865 2014 45 129 55 170 50 198 -15 81 -171 183 -310 202
-38 6 -141 13 -228 17 -155 6 -159 7 -154 28 16 66 17 217 3 296 -80 448 -626
722 -1621 815 -149 14 -775 28 -890 19z m310 -474 c732 -48 1271 -219 1543
-489 61 -60 113 -143 100 -157 -3 -2 -151 0 -329 6 -409 13 -1122 13 -1474 0
-920 -33 -1607 -110 -2272 -254 -204 -44 -256 -68 -353 -166 -77 -77 -147
-193 -185 -305 -22 -67 -155 -555 -156 -575 0 -8 -3 -10 -5 -3 -6 12 55 444
87 623 46 255 103 453 166 573 203 386 1083 686 2203 750 133 8 538 6 675 -3z
m1305 -990 c140 -5 281 -12 313 -16 l58 -6 -6 -77 c-47 -611 -183 -1306 -400
-2039 -219 -742 -441 -1241 -903 -2032 -69 -118 -151 -269 -183 -335 -131
-275 -257 -696 -355 -1184 -20 -97 -37 -177 -38 -179 -4 -4 -310 151 -511 258
-342 182 -420 212 -577 218 l-116 4 19 57 c36 103 98 345 120 466 40 218 29
424 -28 512 -11 17 -12 26 -3 44 25 47 61 168 75 254 41 253 -18 500 -154 635
-251 251 -879 352 -1915 309 -142 -6 -259 -9 -261 -7 -2 2 81 214 183 472
l186 468 -24 20 -24 19 26 77 c15 42 50 145 78 227 145 423 287 879 365 1173
48 179 70 224 142 294 103 101 203 143 433 182 542 94 1422 167 2270 189 272
7 1007 6 1230 -3z m950 -91 c130 -28 220 -74 220 -113 0 -79 -289 -835 -517
-1354 -52 -120 -104 -238 -116 -265 -30 -71 -32 -50 -3 44 113 372 230 961
292 1477 27 219 30 231 49 227 11 -2 45 -9 75 -16z m-1546 -4274 c-13 -74 -13
-107 -4 -193 13 -126 49 -266 96 -381 44 -106 51 -118 190 -316 135 -194 157
-235 156 -293 -2 -79 -78 -174 -202 -253 -94 -60 -284 -123 -460 -153 -114
-19 -320 -32 -320 -21 0 5 16 90 36 189 93 476 171 761 281 1031 41 101 234
488 240 481 1 -1 -4 -42 -13 -91z m-1879 -1207 c64 -21 271 -125 605 -305 113
-60 233 -123 268 -138 46 -21 61 -32 58 -44 -3 -9 -12 -61 -22 -116 -9 -55
-18 -102 -20 -104 -2 -2 -97 1 -210 7 -195 11 -210 13 -268 40 -91 43 -152 99
-312 285 -196 226 -266 280 -385 294 -30 4 -48 10 -46 17 2 6 10 28 17 48 13
35 16 37 64 41 86 6 188 -4 251 -25z"/>
</g>
</svg>
